<mxfile host="Electron" agent="Mozilla/5.0 (Windows NT 10.0; Win64; x64) AppleWebKit/537.36 (KHTML, like Gecko) draw.io/26.0.4 Chrome/128.0.6613.186 Electron/32.2.5 Safari/537.36" version="26.0.4">
  <diagram name="Page-1" id="FyDZ9fomQucEmp26aNn_">
    <mxGraphModel dx="795" dy="824" grid="1" gridSize="10" guides="1" tooltips="1" connect="1" arrows="1" fold="1" page="1" pageScale="1" pageWidth="1169" pageHeight="827" math="1" shadow="0">
      <root>
        <mxCell id="0" />
        <mxCell id="1" parent="0" />
        <mxCell id="XGQm6nhiAU0paA1w4GmD-17" value="" style="curved=1;endArrow=none;html=1;rounded=0;strokeColor=#FF8000;endFill=0;strokeWidth=2;" parent="1" edge="1">
          <mxGeometry width="50" height="50" relative="1" as="geometry">
            <mxPoint x="590" y="230" as="sourcePoint" />
            <mxPoint x="530" y="320" as="targetPoint" />
            <Array as="points">
              <mxPoint x="550" y="270" />
            </Array>
          </mxGeometry>
        </mxCell>
        <mxCell id="XGQm6nhiAU0paA1w4GmD-18" value="" style="curved=1;endArrow=none;html=1;rounded=0;strokeColor=#CCCCCC;endFill=0;strokeWidth=2;" parent="1" edge="1">
          <mxGeometry width="50" height="50" relative="1" as="geometry">
            <mxPoint x="640" y="210" as="sourcePoint" />
            <mxPoint x="590" y="230" as="targetPoint" />
            <Array as="points">
              <mxPoint x="610" y="210" />
            </Array>
          </mxGeometry>
        </mxCell>
        <mxCell id="XGQm6nhiAU0paA1w4GmD-11" value="" style="endArrow=none;dashed=1;html=1;rounded=0;dashPattern=1 2;entryX=0;entryY=1;entryDx=0;entryDy=0;entryPerimeter=0;" parent="1" target="XGQm6nhiAU0paA1w4GmD-20" edge="1">
          <mxGeometry width="50" height="50" relative="1" as="geometry">
            <mxPoint x="590" y="230" as="sourcePoint" />
            <mxPoint x="590" y="210" as="targetPoint" />
          </mxGeometry>
        </mxCell>
        <mxCell id="XGQm6nhiAU0paA1w4GmD-2" value="" style="endArrow=none;dashed=1;html=1;rounded=0;dashPattern=1 2;" parent="1" edge="1">
          <mxGeometry width="50" height="50" relative="1" as="geometry">
            <mxPoint x="320" y="360" as="sourcePoint" />
            <mxPoint x="320" y="220" as="targetPoint" />
          </mxGeometry>
        </mxCell>
        <mxCell id="mYQEKQMOR9aDjggc0fXe-9" value="" style="endArrow=none;dashed=1;html=1;rounded=0;dashPattern=1 2;" parent="1" edge="1">
          <mxGeometry width="50" height="50" relative="1" as="geometry">
            <mxPoint x="160" y="280" as="sourcePoint" />
            <mxPoint x="240" y="280" as="targetPoint" />
          </mxGeometry>
        </mxCell>
        <mxCell id="rMU5473W70Av_hgDXmGt-1" value="" style="endArrow=none;dashed=1;html=1;rounded=0;dashPattern=1 2;" parent="1" edge="1">
          <mxGeometry width="50" height="50" relative="1" as="geometry">
            <mxPoint x="160" y="220" as="sourcePoint" />
            <mxPoint x="320" y="220" as="targetPoint" />
          </mxGeometry>
        </mxCell>
        <mxCell id="XGQm6nhiAU0paA1w4GmD-1" value="" style="endArrow=none;dashed=1;html=1;rounded=0;dashPattern=1 2;" parent="1" edge="1">
          <mxGeometry width="50" height="50" relative="1" as="geometry">
            <mxPoint x="240" y="360" as="sourcePoint" />
            <mxPoint x="240" y="280" as="targetPoint" />
          </mxGeometry>
        </mxCell>
        <mxCell id="mYQEKQMOR9aDjggc0fXe-1" value="" style="endArrow=classic;html=1;rounded=0;" parent="1" edge="1">
          <mxGeometry width="50" height="50" relative="1" as="geometry">
            <mxPoint x="160" y="360" as="sourcePoint" />
            <mxPoint x="400" y="360" as="targetPoint" />
          </mxGeometry>
        </mxCell>
        <mxCell id="mYQEKQMOR9aDjggc0fXe-2" value="" style="endArrow=classic;html=1;rounded=0;" parent="1" edge="1">
          <mxGeometry width="50" height="50" relative="1" as="geometry">
            <mxPoint x="160" y="360" as="sourcePoint" />
            <mxPoint x="160" y="160" as="targetPoint" />
          </mxGeometry>
        </mxCell>
        <mxCell id="mYQEKQMOR9aDjggc0fXe-3" value="" style="endArrow=none;html=1;rounded=0;strokeWidth=2;" parent="1" edge="1">
          <mxGeometry width="50" height="50" relative="1" as="geometry">
            <mxPoint x="160" y="360" as="sourcePoint" />
            <mxPoint x="240" y="280" as="targetPoint" />
          </mxGeometry>
        </mxCell>
        <mxCell id="mYQEKQMOR9aDjggc0fXe-4" value="" style="curved=1;endArrow=none;html=1;rounded=0;strokeColor=#FF8000;endFill=0;strokeWidth=2;" parent="1" edge="1">
          <mxGeometry width="50" height="50" relative="1" as="geometry">
            <mxPoint x="240" y="280" as="sourcePoint" />
            <mxPoint x="320" y="220" as="targetPoint" />
            <Array as="points">
              <mxPoint x="290" y="230" />
            </Array>
          </mxGeometry>
        </mxCell>
        <mxCell id="mYQEKQMOR9aDjggc0fXe-6" value="" style="endArrow=none;html=1;rounded=0;strokeWidth=2;strokeColor=#0066CC;" parent="1" edge="1">
          <mxGeometry width="50" height="50" relative="1" as="geometry">
            <mxPoint x="320" y="220" as="sourcePoint" />
            <mxPoint x="400" y="190" as="targetPoint" />
          </mxGeometry>
        </mxCell>
        <mxCell id="mYQEKQMOR9aDjggc0fXe-11" value="$$x$$" style="text;strokeColor=none;align=center;fillColor=none;html=1;verticalAlign=middle;whiteSpace=wrap;rounded=0;" parent="1" vertex="1">
          <mxGeometry x="400" y="340" width="30" height="40" as="geometry" />
        </mxCell>
        <mxCell id="mYQEKQMOR9aDjggc0fXe-12" value="$$f(x)$$" style="text;strokeColor=none;align=center;fillColor=none;html=1;verticalAlign=middle;whiteSpace=wrap;rounded=0;" parent="1" vertex="1">
          <mxGeometry x="130" y="130" width="60" height="30" as="geometry" />
        </mxCell>
        <mxCell id="mYQEKQMOR9aDjggc0fXe-15" value="$$r_c=C R$$" style="text;strokeColor=none;align=center;fillColor=none;html=1;verticalAlign=middle;whiteSpace=wrap;rounded=0;" parent="1" vertex="1">
          <mxGeometry x="80" y="260" width="80" height="40" as="geometry" />
        </mxCell>
        <mxCell id="mYQEKQMOR9aDjggc0fXe-16" value="0" style="text;strokeColor=none;align=center;fillColor=none;html=1;verticalAlign=middle;whiteSpace=wrap;rounded=0;" parent="1" vertex="1">
          <mxGeometry x="130" y="360" width="30" height="30" as="geometry" />
        </mxCell>
        <mxCell id="mYQEKQMOR9aDjggc0fXe-17" value="" style="endArrow=none;dashed=1;html=1;rounded=0;dashPattern=1 2;strokeColor=#0066CC;" parent="1" edge="1">
          <mxGeometry width="50" height="50" relative="1" as="geometry">
            <mxPoint x="320" y="220" as="sourcePoint" />
            <mxPoint x="400" y="220" as="targetPoint" />
          </mxGeometry>
        </mxCell>
        <mxCell id="mYQEKQMOR9aDjggc0fXe-18" value="" style="endArrow=none;dashed=1;html=1;rounded=0;dashPattern=1 2;strokeColor=#0066CC;" parent="1" edge="1">
          <mxGeometry width="50" height="50" relative="1" as="geometry">
            <mxPoint x="400" y="220" as="sourcePoint" />
            <mxPoint x="400" y="190" as="targetPoint" />
          </mxGeometry>
        </mxCell>
        <mxCell id="mYQEKQMOR9aDjggc0fXe-19" value="$$dx$$" style="text;strokeColor=none;align=center;fillColor=none;html=1;verticalAlign=middle;whiteSpace=wrap;rounded=0;fontColor=#0066CC;" parent="1" vertex="1">
          <mxGeometry x="340" y="220" width="40" height="30" as="geometry" />
        </mxCell>
        <mxCell id="mYQEKQMOR9aDjggc0fXe-20" value="$$dy_2$$" style="text;strokeColor=none;align=center;fillColor=none;html=1;verticalAlign=middle;whiteSpace=wrap;rounded=0;fontColor=#0066CC;" parent="1" vertex="1">
          <mxGeometry x="400" y="190" width="40" height="30" as="geometry" />
        </mxCell>
        <mxCell id="mYQEKQMOR9aDjggc0fXe-21" value="$$S = \frac{dy_2}{dx}$$" style="text;strokeColor=none;align=center;fillColor=none;html=1;verticalAlign=middle;whiteSpace=wrap;rounded=0;fontColor=#0066CC;" parent="1" vertex="1">
          <mxGeometry x="350" y="240" width="110" height="60" as="geometry" />
        </mxCell>
        <mxCell id="mYQEKQMOR9aDjggc0fXe-22" value="Curve is \(x^\beta\)." style="text;strokeColor=none;align=center;fillColor=none;html=1;verticalAlign=middle;whiteSpace=wrap;rounded=0;fontColor=#FF8000;" parent="1" vertex="1">
          <mxGeometry x="180" y="190" width="140" height="20" as="geometry" />
        </mxCell>
        <mxCell id="rMU5473W70Av_hgDXmGt-3" value="$$C$$" style="text;strokeColor=none;align=center;fillColor=none;html=1;verticalAlign=middle;whiteSpace=wrap;rounded=0;" parent="1" vertex="1">
          <mxGeometry x="110" y="200" width="50" height="40" as="geometry" />
        </mxCell>
        <mxCell id="XGQm6nhiAU0paA1w4GmD-3" value="$$x_c$$" style="text;strokeColor=none;align=center;fillColor=none;html=1;verticalAlign=middle;whiteSpace=wrap;rounded=0;" parent="1" vertex="1">
          <mxGeometry x="300" y="360" width="40" height="30" as="geometry" />
        </mxCell>
        <mxCell id="XGQm6nhiAU0paA1w4GmD-9" value="" style="endArrow=classic;html=1;rounded=0;" parent="1" edge="1">
          <mxGeometry width="50" height="50" relative="1" as="geometry">
            <mxPoint x="640" y="210" as="sourcePoint" />
            <mxPoint x="520" y="210" as="targetPoint" />
          </mxGeometry>
        </mxCell>
        <mxCell id="XGQm6nhiAU0paA1w4GmD-10" value="" style="endArrow=classic;html=1;rounded=0;" parent="1" edge="1">
          <mxGeometry width="50" height="50" relative="1" as="geometry">
            <mxPoint x="640" y="210" as="sourcePoint" />
            <mxPoint x="640" y="340" as="targetPoint" />
          </mxGeometry>
        </mxCell>
        <mxCell id="XGQm6nhiAU0paA1w4GmD-12" value="$$x_s$$" style="text;strokeColor=none;align=center;fillColor=none;html=1;verticalAlign=middle;whiteSpace=wrap;rounded=0;" parent="1" vertex="1">
          <mxGeometry x="595" y="160" width="40" height="30" as="geometry" />
        </mxCell>
        <mxCell id="XGQm6nhiAU0paA1w4GmD-13" value="$$\xi$$" style="text;strokeColor=none;align=center;fillColor=none;html=1;verticalAlign=middle;whiteSpace=wrap;rounded=0;" parent="1" vertex="1">
          <mxGeometry x="480" y="190" width="40" height="40" as="geometry" />
        </mxCell>
        <mxCell id="XGQm6nhiAU0paA1w4GmD-14" value="$$\xi^\beta$$" style="text;strokeColor=none;align=center;fillColor=none;html=1;verticalAlign=middle;whiteSpace=wrap;rounded=0;" parent="1" vertex="1">
          <mxGeometry x="570" y="340" width="140" height="40" as="geometry" />
        </mxCell>
        <mxCell id="XGQm6nhiAU0paA1w4GmD-15" value="Gray part of the curve is unused." style="text;strokeColor=none;align=center;fillColor=none;html=1;verticalAlign=middle;whiteSpace=wrap;rounded=0;fontColor=#999999;" parent="1" vertex="1">
          <mxGeometry x="660" y="250" width="120" height="30" as="geometry" />
        </mxCell>
        <mxCell id="XGQm6nhiAU0paA1w4GmD-20" value="" style="shape=crossbar;whiteSpace=wrap;html=1;rounded=1;" parent="1" vertex="1">
          <mxGeometry x="590" y="190" width="50" height="10" as="geometry" />
        </mxCell>
        <mxCell id="XGQm6nhiAU0paA1w4GmD-21" value="" style="endArrow=none;dashed=1;html=1;rounded=0;dashPattern=1 2;entryX=0;entryY=1;entryDx=0;entryDy=0;entryPerimeter=0;" parent="1" edge="1">
          <mxGeometry width="50" height="50" relative="1" as="geometry">
            <mxPoint x="640" y="210" as="sourcePoint" />
            <mxPoint x="640" y="200" as="targetPoint" />
          </mxGeometry>
        </mxCell>
        <mxCell id="XGQm6nhiAU0paA1w4GmD-23" value="Polynomial Curve Spec." style="text;strokeColor=none;align=center;fillColor=none;html=1;verticalAlign=middle;whiteSpace=wrap;rounded=0;fontColor=#FF8000;" parent="1" vertex="1">
          <mxGeometry x="520" y="130" width="140" height="20" as="geometry" />
        </mxCell>
        <mxCell id="cxR_dERJbeeTF7Q492Xx-1" value="" style="endArrow=oval;html=1;rounded=0;exitX=0.75;exitY=1;exitDx=0;exitDy=0;endFill=1;" parent="1" source="cxR_dERJbeeTF7Q492Xx-2" edge="1">
          <mxGeometry width="50" height="50" relative="1" as="geometry">
            <mxPoint x="570" y="190" as="sourcePoint" />
            <mxPoint x="590" y="210" as="targetPoint" />
          </mxGeometry>
        </mxCell>
        <mxCell id="cxR_dERJbeeTF7Q492Xx-2" value="$$x_c$$" style="text;strokeColor=none;align=center;fillColor=none;html=1;verticalAlign=middle;whiteSpace=wrap;rounded=0;" parent="1" vertex="1">
          <mxGeometry x="530" y="150" width="40" height="30" as="geometry" />
        </mxCell>
        <mxCell id="uyt9Mz1fGKqYYGmh8fDR-1" value="" style="endArrow=oval;html=1;rounded=0;endFill=1;exitX=0.25;exitY=1;exitDx=0;exitDy=0;" parent="1" source="uyt9Mz1fGKqYYGmh8fDR-2" edge="1">
          <mxGeometry width="50" height="50" relative="1" as="geometry">
            <mxPoint x="680" y="190" as="sourcePoint" />
            <mxPoint x="640" y="210" as="targetPoint" />
          </mxGeometry>
        </mxCell>
        <mxCell id="uyt9Mz1fGKqYYGmh8fDR-2" value="$$0$$" style="text;strokeColor=none;align=center;fillColor=none;html=1;verticalAlign=middle;whiteSpace=wrap;rounded=0;" parent="1" vertex="1">
          <mxGeometry x="660" y="160" width="40" height="20" as="geometry" />
        </mxCell>
        <mxCell id="uyt9Mz1fGKqYYGmh8fDR-3" value="" style="endArrow=classic;html=1;rounded=0;strokeColor=#FF8000;" parent="1" edge="1">
          <mxGeometry width="50" height="50" relative="1" as="geometry">
            <mxPoint x="270" y="160" as="sourcePoint" />
            <mxPoint x="240" y="160" as="targetPoint" />
          </mxGeometry>
        </mxCell>
        <mxCell id="uyt9Mz1fGKqYYGmh8fDR-4" value="Direction of \(\xi\) is opposite of \(x\)." style="text;strokeColor=none;align=center;fillColor=none;html=1;verticalAlign=middle;whiteSpace=wrap;rounded=0;fontColor=#FF8000;" parent="1" vertex="1">
          <mxGeometry x="270" y="150" width="170" height="20" as="geometry" />
        </mxCell>
        <mxCell id="JaEXD8E03UeRqQzRxOSL-1" value="Parameters:&lt;br&gt;- \(C\): Clipping threshold.&lt;br&gt;- \(R\): Ratio of polynomial region.&lt;br&gt;- \(\beta\): Order of polynomial.&lt;br&gt;- \(S\): Slope of secondary linear region." style="text;strokeColor=none;align=left;fillColor=none;verticalAlign=middle;whiteSpace=wrap;rounded=0;spacing=2;html=1;horizontal=1;" parent="1" vertex="1">
          <mxGeometry x="320" y="400" width="240" height="91" as="geometry" />
        </mxCell>
      </root>
    </mxGraphModel>
  </diagram>
</mxfile>
